<mxfile host="app.diagrams.net" agent="Mozilla/5.0 (Windows NT 10.0; Win64; x64) AppleWebKit/537.36 (KHTML, like Gecko) Chrome/130.0.0.0 Safari/537.36" version="24.9.0">
  <diagram name="Page-1" id="z8SCNefCMK0FtTpeHOKZ">
    <mxGraphModel dx="1379" dy="729" grid="1" gridSize="10" guides="1" tooltips="1" connect="1" arrows="1" fold="1" page="1" pageScale="1" pageWidth="850" pageHeight="1100" math="0" shadow="0">
      <root>
        <mxCell id="0" />
        <mxCell id="1" parent="0" />
        <mxCell id="tkI3_jQ146dKknzynZfg-27" value="" style="edgeStyle=orthogonalEdgeStyle;rounded=0;orthogonalLoop=1;jettySize=auto;html=1;" edge="1" parent="1" source="tkI3_jQ146dKknzynZfg-25" target="tkI3_jQ146dKknzynZfg-26">
          <mxGeometry relative="1" as="geometry" />
        </mxCell>
        <mxCell id="tkI3_jQ146dKknzynZfg-25" value="start" style="strokeWidth=2;html=1;shape=mxgraph.flowchart.start_1;whiteSpace=wrap;" vertex="1" parent="1">
          <mxGeometry x="359" y="60" width="100" height="60" as="geometry" />
        </mxCell>
        <mxCell id="tkI3_jQ146dKknzynZfg-33" value="" style="edgeStyle=orthogonalEdgeStyle;rounded=0;orthogonalLoop=1;jettySize=auto;html=1;" edge="1" parent="1" source="tkI3_jQ146dKknzynZfg-26" target="tkI3_jQ146dKknzynZfg-32">
          <mxGeometry relative="1" as="geometry" />
        </mxCell>
        <mxCell id="tkI3_jQ146dKknzynZfg-26" value="กำหนดค่าตัวแปร:&#xa;a=10, b=20, c=30, d=40" style="whiteSpace=wrap;strokeWidth=2;" vertex="1" parent="1">
          <mxGeometry x="295.5" y="170" width="227" height="66" as="geometry" />
        </mxCell>
        <mxCell id="tkI3_jQ146dKknzynZfg-35" value="" style="edgeStyle=orthogonalEdgeStyle;rounded=0;orthogonalLoop=1;jettySize=auto;html=1;" edge="1" parent="1" source="tkI3_jQ146dKknzynZfg-32" target="tkI3_jQ146dKknzynZfg-34">
          <mxGeometry relative="1" as="geometry" />
        </mxCell>
        <mxCell id="tkI3_jQ146dKknzynZfg-62" value="" style="edgeStyle=orthogonalEdgeStyle;rounded=0;orthogonalLoop=1;jettySize=auto;html=1;" edge="1" parent="1" source="tkI3_jQ146dKknzynZfg-63" target="tkI3_jQ146dKknzynZfg-34">
          <mxGeometry relative="1" as="geometry" />
        </mxCell>
        <mxCell id="tkI3_jQ146dKknzynZfg-32" value="แสดงข้อความ&lt;div&gt;10 + 20 = 30&lt;/div&gt;" style="shape=parallelogram;html=1;strokeWidth=2;perimeter=parallelogramPerimeter;whiteSpace=wrap;rounded=1;arcSize=12;size=0.20192307692307693;" vertex="1" parent="1">
          <mxGeometry x="309" y="270" width="200" height="70" as="geometry" />
        </mxCell>
        <mxCell id="tkI3_jQ146dKknzynZfg-37" value="" style="edgeStyle=orthogonalEdgeStyle;rounded=0;orthogonalLoop=1;jettySize=auto;html=1;" edge="1" parent="1" source="tkI3_jQ146dKknzynZfg-34" target="tkI3_jQ146dKknzynZfg-36">
          <mxGeometry relative="1" as="geometry" />
        </mxCell>
        <mxCell id="tkI3_jQ146dKknzynZfg-65" style="edgeStyle=orthogonalEdgeStyle;rounded=0;orthogonalLoop=1;jettySize=auto;html=1;entryX=0.5;entryY=0;entryDx=0;entryDy=0;entryPerimeter=0;" edge="1" parent="1" source="tkI3_jQ146dKknzynZfg-34" target="tkI3_jQ146dKknzynZfg-66">
          <mxGeometry relative="1" as="geometry">
            <mxPoint x="539" y="1730" as="targetPoint" />
            <Array as="points">
              <mxPoint x="549" y="460" />
              <mxPoint x="549" y="1670" />
              <mxPoint x="409" y="1670" />
            </Array>
          </mxGeometry>
        </mxCell>
        <mxCell id="tkI3_jQ146dKknzynZfg-34" value="วนซ้ำ i&amp;nbsp; = 0 ถึง d - 30" style="strokeWidth=2;html=1;shape=mxgraph.flowchart.decision;whiteSpace=wrap;" vertex="1" parent="1">
          <mxGeometry x="334" y="390" width="150" height="140" as="geometry" />
        </mxCell>
        <mxCell id="tkI3_jQ146dKknzynZfg-42" value="" style="edgeStyle=orthogonalEdgeStyle;rounded=0;orthogonalLoop=1;jettySize=auto;html=1;" edge="1" parent="1" source="tkI3_jQ146dKknzynZfg-36" target="tkI3_jQ146dKknzynZfg-41">
          <mxGeometry relative="1" as="geometry" />
        </mxCell>
        <mxCell id="tkI3_jQ146dKknzynZfg-54" style="edgeStyle=orthogonalEdgeStyle;rounded=0;orthogonalLoop=1;jettySize=auto;html=1;exitX=1;exitY=0.5;exitDx=0;exitDy=0;exitPerimeter=0;entryX=1;entryY=0.5;entryDx=0;entryDy=0;entryPerimeter=0;" edge="1" parent="1" source="tkI3_jQ146dKknzynZfg-36" target="tkI3_jQ146dKknzynZfg-55">
          <mxGeometry relative="1" as="geometry">
            <mxPoint x="429" y="1350" as="targetPoint" />
            <mxPoint x="484" y="668" as="sourcePoint" />
            <Array as="points">
              <mxPoint x="510" y="680" />
              <mxPoint x="510" y="1350" />
            </Array>
          </mxGeometry>
        </mxCell>
        <mxCell id="tkI3_jQ146dKknzynZfg-36" value="i &amp;lt; 30" style="strokeWidth=2;html=1;shape=mxgraph.flowchart.decision;whiteSpace=wrap;" vertex="1" parent="1">
          <mxGeometry x="334" y="610" width="150" height="140" as="geometry" />
        </mxCell>
        <mxCell id="tkI3_jQ146dKknzynZfg-39" value="ใช่" style="text;html=1;align=center;verticalAlign=middle;whiteSpace=wrap;rounded=0;" vertex="1" parent="1">
          <mxGeometry x="399" y="520" width="60" height="30" as="geometry" />
        </mxCell>
        <mxCell id="tkI3_jQ146dKknzynZfg-40" value="ไม่ใช่" style="text;html=1;align=center;verticalAlign=middle;whiteSpace=wrap;rounded=0;" vertex="1" parent="1">
          <mxGeometry x="449" y="480" width="60" height="30" as="geometry" />
        </mxCell>
        <mxCell id="tkI3_jQ146dKknzynZfg-45" value="" style="edgeStyle=orthogonalEdgeStyle;rounded=0;orthogonalLoop=1;jettySize=auto;html=1;" edge="1" parent="1" source="tkI3_jQ146dKknzynZfg-41" target="tkI3_jQ146dKknzynZfg-44">
          <mxGeometry relative="1" as="geometry" />
        </mxCell>
        <mxCell id="tkI3_jQ146dKknzynZfg-41" value="แสดง้อความ here" style="shape=parallelogram;perimeter=parallelogramPerimeter;whiteSpace=wrap;html=1;fixedSize=1;strokeWidth=2;" vertex="1" parent="1">
          <mxGeometry x="349" y="870" width="120" height="60" as="geometry" />
        </mxCell>
        <mxCell id="tkI3_jQ146dKknzynZfg-43" value="ใช่" style="text;html=1;align=center;verticalAlign=middle;whiteSpace=wrap;rounded=0;" vertex="1" parent="1">
          <mxGeometry x="399" y="740" width="60" height="30" as="geometry" />
        </mxCell>
        <mxCell id="tkI3_jQ146dKknzynZfg-47" value="" style="edgeStyle=orthogonalEdgeStyle;rounded=0;orthogonalLoop=1;jettySize=auto;html=1;" edge="1" parent="1" source="tkI3_jQ146dKknzynZfg-44" target="tkI3_jQ146dKknzynZfg-46">
          <mxGeometry relative="1" as="geometry" />
        </mxCell>
        <mxCell id="tkI3_jQ146dKknzynZfg-52" style="edgeStyle=orthogonalEdgeStyle;rounded=0;orthogonalLoop=1;jettySize=auto;html=1;entryX=0;entryY=0.5;entryDx=0;entryDy=0;entryPerimeter=0;" edge="1" parent="1" source="tkI3_jQ146dKknzynZfg-44" target="tkI3_jQ146dKknzynZfg-55">
          <mxGeometry relative="1" as="geometry">
            <mxPoint x="389" y="1350" as="targetPoint" />
            <Array as="points">
              <mxPoint x="299" y="1065" />
              <mxPoint x="299" y="1350" />
            </Array>
          </mxGeometry>
        </mxCell>
        <mxCell id="tkI3_jQ146dKknzynZfg-44" value="i คือ 8" style="rhombus;whiteSpace=wrap;html=1;strokeWidth=2;" vertex="1" parent="1">
          <mxGeometry x="339" y="1000" width="140" height="130" as="geometry" />
        </mxCell>
        <mxCell id="tkI3_jQ146dKknzynZfg-51" value="" style="edgeStyle=orthogonalEdgeStyle;rounded=0;orthogonalLoop=1;jettySize=auto;html=1;" edge="1" parent="1" source="tkI3_jQ146dKknzynZfg-55" target="tkI3_jQ146dKknzynZfg-50">
          <mxGeometry relative="1" as="geometry" />
        </mxCell>
        <mxCell id="tkI3_jQ146dKknzynZfg-46" value="แสดง้อความ&lt;div&gt;this is 8&lt;/div&gt;" style="shape=parallelogram;perimeter=parallelogramPerimeter;whiteSpace=wrap;html=1;fixedSize=1;strokeWidth=2;" vertex="1" parent="1">
          <mxGeometry x="349" y="1245" width="120" height="60" as="geometry" />
        </mxCell>
        <mxCell id="tkI3_jQ146dKknzynZfg-48" value="ใช่" style="text;html=1;align=center;verticalAlign=middle;whiteSpace=wrap;rounded=0;" vertex="1" parent="1">
          <mxGeometry x="399" y="930" width="60" height="30" as="geometry" />
        </mxCell>
        <mxCell id="tkI3_jQ146dKknzynZfg-49" value="ใช่" style="text;html=1;align=center;verticalAlign=middle;whiteSpace=wrap;rounded=0;" vertex="1" parent="1">
          <mxGeometry x="399" y="1120" width="60" height="30" as="geometry" />
        </mxCell>
        <mxCell id="tkI3_jQ146dKknzynZfg-60" value="" style="edgeStyle=orthogonalEdgeStyle;rounded=0;orthogonalLoop=1;jettySize=auto;html=1;" edge="1" parent="1" source="tkI3_jQ146dKknzynZfg-50" target="tkI3_jQ146dKknzynZfg-59">
          <mxGeometry relative="1" as="geometry" />
        </mxCell>
        <mxCell id="tkI3_jQ146dKknzynZfg-50" value="แสดข้อความ ok" style="shape=parallelogram;perimeter=parallelogramPerimeter;whiteSpace=wrap;html=1;fixedSize=1;strokeWidth=2;" vertex="1" parent="1">
          <mxGeometry x="349" y="1385" width="120" height="60" as="geometry" />
        </mxCell>
        <mxCell id="tkI3_jQ146dKknzynZfg-56" value="" style="edgeStyle=orthogonalEdgeStyle;rounded=0;orthogonalLoop=1;jettySize=auto;html=1;" edge="1" parent="1" source="tkI3_jQ146dKknzynZfg-46" target="tkI3_jQ146dKknzynZfg-55">
          <mxGeometry relative="1" as="geometry">
            <mxPoint x="409" y="1305" as="sourcePoint" />
            <mxPoint x="409" y="1385" as="targetPoint" />
          </mxGeometry>
        </mxCell>
        <mxCell id="tkI3_jQ146dKknzynZfg-55" value="" style="verticalLabelPosition=bottom;verticalAlign=top;html=1;shape=mxgraph.flowchart.on-page_reference;" vertex="1" parent="1">
          <mxGeometry x="399" y="1340" width="20" height="20" as="geometry" />
        </mxCell>
        <mxCell id="tkI3_jQ146dKknzynZfg-57" value="ไม่ใช่" style="text;html=1;align=center;verticalAlign=middle;whiteSpace=wrap;rounded=0;" vertex="1" parent="1">
          <mxGeometry x="462.5" y="655" width="60" height="30" as="geometry" />
        </mxCell>
        <mxCell id="tkI3_jQ146dKknzynZfg-58" value="ไม่ใช่" style="text;html=1;align=center;verticalAlign=middle;whiteSpace=wrap;rounded=0;" vertex="1" parent="1">
          <mxGeometry x="295.5" y="1030" width="60" height="30" as="geometry" />
        </mxCell>
        <mxCell id="tkI3_jQ146dKknzynZfg-61" style="edgeStyle=orthogonalEdgeStyle;rounded=0;orthogonalLoop=1;jettySize=auto;html=1;entryX=0;entryY=0.5;entryDx=0;entryDy=0;entryPerimeter=0;" edge="1" parent="1" source="tkI3_jQ146dKknzynZfg-59" target="tkI3_jQ146dKknzynZfg-63">
          <mxGeometry relative="1" as="geometry">
            <mxPoint x="389" y="370" as="targetPoint" />
            <Array as="points">
              <mxPoint x="409" y="1640" />
              <mxPoint x="240" y="1640" />
              <mxPoint x="240" y="365" />
            </Array>
          </mxGeometry>
        </mxCell>
        <mxCell id="tkI3_jQ146dKknzynZfg-59" value="เพิ่มค่า i จำนวนรอบ" style="whiteSpace=wrap;html=1;strokeWidth=2;" vertex="1" parent="1">
          <mxGeometry x="349" y="1525" width="120" height="60" as="geometry" />
        </mxCell>
        <mxCell id="tkI3_jQ146dKknzynZfg-64" value="" style="edgeStyle=orthogonalEdgeStyle;rounded=0;orthogonalLoop=1;jettySize=auto;html=1;" edge="1" parent="1" target="tkI3_jQ146dKknzynZfg-63">
          <mxGeometry relative="1" as="geometry">
            <mxPoint x="409" y="350" as="sourcePoint" />
            <mxPoint x="409" y="390" as="targetPoint" />
          </mxGeometry>
        </mxCell>
        <mxCell id="tkI3_jQ146dKknzynZfg-63" value="" style="verticalLabelPosition=bottom;verticalAlign=top;html=1;shape=mxgraph.flowchart.on-page_reference;" vertex="1" parent="1">
          <mxGeometry x="399" y="355" width="20" height="20" as="geometry" />
        </mxCell>
        <mxCell id="tkI3_jQ146dKknzynZfg-66" value="end" style="strokeWidth=2;html=1;shape=mxgraph.flowchart.start_1;whiteSpace=wrap;" vertex="1" parent="1">
          <mxGeometry x="359" y="1720" width="100" height="60" as="geometry" />
        </mxCell>
      </root>
    </mxGraphModel>
  </diagram>
</mxfile>
